<?xml version="1.0" standalone="no"?>

<!DOCTYPE svg PUBLIC "-//W3C//DTD SVG 20010904//EN"
 "http://www.w3.org/TR/2001/REC-SVG-20010904/DTD/svg10.dtd">
<svg version="1.0" xmlns="http://www.w3.org/2000/svg"
 width="60px" height="45px" viewBox="0 0 512.000000 512.000000"
 preserveAspectRatio="xMidYMid meet">

<g transform="translate(0.000000,512.000000) scale(0.100000,-0.100000)"
fill="#000000" stroke="none">
<path d="M2272 5104 c-146 -39 -255 -138 -311 -283 l-25 -66 -4 -607 -3 -608
-420 0 c-230 0 -419 3 -419 8 0 4 -7 49 -15 100 -26 172 -100 282 -233 345
-64 31 -73 32 -224 37 l-156 5 -34 50 c-96 145 -320 135 -400 -18 -34 -64 -32
-167 4 -228 90 -152 316 -154 404 -3 l27 46 146 -4 c111 -2 153 -7 176 -20 47
-26 103 -87 120 -132 15 -41 45 -244 85 -576 11 -96 26 -185 32 -197 6 -12 27
-28 46 -34 29 -10 38 -9 61 8 35 27 37 67 12 268 -12 89 -21 169 -21 178 0 16
128 17 1806 17 l1807 0 -7 -47 c-9 -71 -266 -2143 -266 -2148 0 -2 -105 -5
-234 -7 -213 -3 -236 -5 -255 -22 -30 -27 -28 -80 4 -111 23 -24 29 -25 154
-25 l130 0 102 -170 101 -169 -35 -43 c-38 -47 -70 -108 -81 -151 l-6 -27
-1375 0 c-1303 0 -1375 1 -1375 18 0 25 -43 112 -73 148 -15 18 -27 37 -27 42
0 6 50 88 111 182 l111 170 990 0 989 0 24 25 c32 31 34 84 4 111 -20 18 -56
19 -1175 22 l-1153 2 -5 33 c-3 17 -44 345 -91 727 -50 404 -91 708 -100 727
-17 39 -52 50 -92 31 -57 -27 -59 0 43 -817 72 -578 98 -762 112 -785 30 -51
75 -70 179 -76 l92 -5 -84 -130 c-46 -71 -88 -130 -92 -130 -4 1 -35 7 -68 14
-162 37 -351 -59 -431 -218 -27 -51 -29 -65 -29 -166 0 -98 3 -116 27 -167 90
-194 329 -280 523 -190 104 49 169 121 204 225 l18 52 1371 3 1372 2 6 -27
c15 -61 65 -142 118 -191 124 -113 317 -132 464 -46 171 101 238 324 152 507
-72 153 -258 250 -419 218 -34 -7 -65 -10 -70 -7 -8 6 -151 242 -151 251 0 2
66 5 148 7 135 3 150 5 180 26 18 13 39 37 48 54 11 21 60 387 157 1165 l141
1134 -22 45 c-37 76 -60 84 -254 84 l-166 0 -4 106 c-3 97 -5 107 -27 125 -31
26 -83 25 -107 -2 -15 -17 -20 -40 -22 -120 l-4 -99 -469 0 -469 0 0 570 c0
365 4 587 11 619 17 81 73 150 153 191 l69 35 236 -1 c231 0 238 -1 291 -26
78 -35 114 -70 149 -140 l31 -61 0 -344 c0 -366 3 -393 49 -408 30 -9 69 5 91
32 19 24 20 42 20 353 0 181 -5 351 -10 381 -33 173 -161 308 -335 354 -83 21
-473 21 -564 0 -146 -35 -258 -136 -319 -289 -15 -36 -18 -113 -22 -656 l-5
-615 -112 -3 -112 -3 -3 608 c-4 588 -5 610 -25 664 -57 152 -168 255 -318
294 -81 21 -495 20 -573 -1z m582 -167 c62 -29 118 -84 148 -146 l23 -46 3
-597 3 -598 -471 0 -471 0 3 603 c3 599 3 602 25 643 50 94 119 146 214 163
29 6 148 8 263 6 193 -4 212 -6 260 -28z"/>
<path d="M2243 4758 c-12 -6 -27 -23 -34 -39 -15 -37 2 -82 37 -98 17 -7 123
-11 325 -11 l300 0 24 25 c16 15 25 36 25 55 0 19 -9 40 -25 55 l-24 25 -303
-1 c-190 0 -311 -4 -325 -11z"/>
<path d="M2233 4475 c-44 -31 -37 -111 13 -134 17 -7 123 -11 325 -11 l300 0
24 25 c16 15 25 36 25 55 0 19 -9 40 -25 55 l-24 25 -308 0 c-256 0 -312 -3
-330 -15z"/>
<path d="M2231 4193 c-34 -29 -37 -74 -8 -109 l25 -29 317 0 317 0 19 24 c25
30 24 72 -2 105 l-20 26 -314 0 c-283 0 -315 -2 -334 -17z"/>
<path d="M3716 4749 c-37 -29 -37 -89 0 -118 26 -20 38 -21 329 -21 291 0 303
1 329 21 20 16 26 29 26 59 0 30 -6 43 -26 59 -26 20 -38 21 -329 21 -291 0
-303 -1 -329 -21z"/>
<path d="M3716 4469 c-37 -29 -37 -89 0 -118 26 -20 38 -21 329 -21 291 0 303
1 329 21 35 27 36 86 3 117 -23 22 -29 22 -329 22 -294 0 -306 -1 -332 -21z"/>
<path d="M3712 4190 c-30 -28 -30 -90 -1 -116 20 -18 43 -19 330 -22 l309 -3
25 25 c32 32 34 87 5 116 -19 19 -33 20 -333 20 -301 0 -314 -1 -335 -20z"/>
<path d="M1955 3171 c-78 -20 -156 -90 -174 -158 -7 -25 -11 -273 -11 -733 0
-655 2 -697 19 -736 51 -113 179 -168 303 -130 67 20 114 60 145 124 l28 57 0
695 c0 685 0 696 -21 740 -40 85 -113 136 -206 144 -29 3 -66 2 -83 -3z"/>
<path d="M2635 3171 c-78 -20 -156 -90 -174 -158 -7 -25 -11 -273 -11 -733 0
-655 2 -697 19 -736 51 -113 179 -168 303 -130 67 20 114 60 145 124 l28 57 0
695 c0 685 0 696 -21 740 -40 85 -113 136 -206 144 -29 3 -66 2 -83 -3z"/>
<path d="M3315 3171 c-78 -20 -156 -90 -174 -158 -7 -25 -11 -273 -11 -733 0
-655 2 -697 19 -736 51 -113 179 -168 303 -130 67 20 114 60 145 124 l28 57 0
695 c0 685 0 696 -21 740 -40 85 -113 136 -206 144 -29 3 -66 2 -83 -3z"/>
<path d="M3995 3171 c-78 -20 -156 -90 -174 -158 -7 -25 -11 -273 -11 -733 0
-655 2 -697 19 -736 51 -113 179 -168 303 -130 67 20 114 60 145 124 l28 57 0
695 c0 685 0 696 -21 740 -40 85 -113 136 -206 144 -29 3 -66 2 -83 -3z"/>
</g>
</svg>
